<svg width="375" height="532" viewBox="0 0 375 532" fill="none" xmlns="http://www.w3.org/2000/svg">
<g opacity="0.1" filter="url(#filter0_f_173_722)">
<ellipse cx="188" cy="213" rx="119" ry="212" transform="rotate(-90 188 213)" fill="#2BFCFC"/>
</g>
<g opacity="0.02">
<path d="M198.237 301.805H173.438L161.093 280.301H185.862L198.237 301.805Z" fill="white"/>
<path d="M198.238 254.706L193.633 262.768L185.833 276.533H161.054L165.68 268.411H180.483C180.53 268.415 180.577 268.415 180.624 268.411H180.916C181.017 268.363 181.114 268.309 181.208 268.249H181.269L181.52 268.038L181.631 267.906L181.702 267.827L181.813 267.655L181.873 267.544L189.088 255.049L188.998 254.888L198.238 254.706Z" fill="white"/>
<path d="M213.937 278.315L201.491 299.9L189.117 278.405L201.491 256.569L213.937 278.315Z" fill="white"/>
<path d="M210.772 184.933L215.186 192.672H206.943L201.652 183.452L213.502 162.844L217.654 169.959L210.409 182.645C210.366 182.716 210.329 182.79 210.299 182.867C210.299 182.867 210.299 182.958 210.248 182.998V183.421C210.26 183.726 210.347 184.024 210.5 184.288L210.772 184.933Z" fill="white"/>
<path d="M267 184.146L255.754 204.905L255.724 204.844L243.37 183.552L254.757 162.955L266.99 184.146H267Z" fill="white"/>
<path d="M251.523 161.02L240.146 181.587L240.075 181.708H215.226L221.211 171.359L222.007 169.978L227.117 161.171L251.523 161.02Z" fill="white"/>
<path d="M252.601 206.941H243.925V206.81L236.306 193.569L236.185 193.397C236.123 193.316 236.052 193.242 235.974 193.176L235.923 193.125L235.682 192.954L235.41 192.823C235.316 192.782 235.217 192.752 235.117 192.732C234.985 192.701 234.85 192.684 234.714 192.682H219.457L215.336 185.497H215.437L224.506 185.447H228.789L240.135 185.376L240.206 185.497L252.53 206.84L252.601 206.941Z" fill="white"/>
<path d="M219.449 264.591H210.38L203.124 251.924L203.064 251.813L202.993 251.712L202.913 251.622L202.822 251.531L202.731 251.451L202.65 251.279L202.449 251.138L202.328 251.088H201.996C201.945 251.078 201.895 251.078 201.845 251.088H191.354L195.889 243.228H206.974L219.449 264.591Z" fill="white"/>
<path d="M247.24 220.383L222.733 262.727L210.298 241.182L228.497 209.167V209.157L228.577 209.016L234.674 198.294L239.511 206.84L239.562 206.92L240.761 209.016L240.811 209.097L241.667 210.598L241.708 210.679L241.748 210.749L247.24 220.383Z" fill="white"/>
<path d="M206.761 239.308L195.968 239.268L189.076 227.276L199.747 209.087L199.787 209.017L201.027 206.901L205.955 198.517L206.811 197.035L207.144 196.471H209.109L217.362 196.441L219.024 196.431H220.899L222.844 196.421L231.157 196.39L206.761 239.308Z" fill="white"/>
<path d="M192.673 241.082L191.554 243.016L187.01 250.897L186.929 251.048L184.843 254.655L184.752 254.817L180.198 262.707L179.23 261.004L155.922 220.192L161.404 210.599L175.109 210.589L175.129 210.619L184.712 227.266L184.843 227.488L186.879 231.015L187 231.237L191.615 239.258L192.673 241.082Z" fill="white"/>
<path d="M158.07 208.836L157.979 208.987L152.648 218.308L127.869 218.177L132.192 210.73H147.963C148.036 210.741 148.111 210.741 148.184 210.73H148.487L148.668 210.66L148.869 210.539L149.061 210.398L149.152 210.307C149.272 210.187 149.377 210.051 149.464 209.904L153.888 201.913L153.948 201.802L158.07 208.836Z" fill="white"/>
<path d="M176.954 264.631L167.825 264.681L163.471 264.711L152.397 264.772L127.859 221.955L152.649 222.076L170.223 252.851L170.918 254.06L172.389 256.65L176.954 264.631Z" fill="white"/>
<path d="M144.526 206.961L119.324 206.971L107.01 185.477H131.789L144.526 206.961Z" fill="white"/>
<path d="M203.789 194.747L196.664 206.88L177.306 206.86H161.264V206.839H161.093L161.042 206.759L156.044 198.012L155.339 196.783L153.837 194.173L148.819 185.406H198.417L198.478 185.507L203.789 194.747Z" fill="white"/>
<path d="M210.229 161L198.379 181.648L198.319 181.748L162.918 181.668H158.495L150.403 181.658H148.841L153.587 173.717L155.774 170.089L161.195 161.071L210.229 161Z" fill="white"/>
<path d="M151.743 197.872L151.693 197.952L147.763 205.006L142.855 196.703L135.076 183.562L146.906 162.834L151.37 170.069L143.954 182.464C143.784 182.748 143.694 183.071 143.691 183.401C143.69 183.732 143.773 184.058 143.933 184.348L144.004 184.459L148.871 192.884L151.048 196.642L151.743 197.872Z" fill="white"/>
<path d="M143.599 161.071L131.82 181.709H107L118.79 161.071H143.599Z" fill="white"/>
</g>
<defs>
<filter id="filter0_f_173_722" x="-224" y="-106" width="824" height="638" filterUnits="userSpaceOnUse" color-interpolation-filters="sRGB">
<feFlood flood-opacity="0" result="BackgroundImageFix"/>
<feBlend mode="normal" in="SourceGraphic" in2="BackgroundImageFix" result="shape"/>
<feGaussianBlur stdDeviation="100" result="effect1_foregroundBlur_173_722"/>
</filter>
</defs>
</svg>
