<svg width="530" height="120" viewBox="0 0 530 120" fill="none" xmlns="http://www.w3.org/2000/svg">
<mask id="path-1-inside-1_20_3682" fill="white">
<path fill-rule="evenodd" clip-rule="evenodd" d="M4 0C1.79086 0 0 1.79086 0 4V116C0 118.209 1.79085 120 3.99998 120H243.176C246.968 111.738 255.314 106 265 106C274.686 106 283.032 111.738 286.824 120H526C528.209 120 530 118.209 530 116V4C530 1.79086 528.209 0 526 0H4Z"/>
</mask>
<path fill-rule="evenodd" clip-rule="evenodd" d="M4 0C1.79086 0 0 1.79086 0 4V116C0 118.209 1.79085 120 3.99998 120H243.176C246.968 111.738 255.314 106 265 106C274.686 106 283.032 111.738 286.824 120H526C528.209 120 530 118.209 530 116V4C530 1.79086 528.209 0 526 0H4Z" fill="#031619"/>
<path d="M243.176 120V121H243.817L244.085 120.417L243.176 120ZM286.824 120L285.915 120.417L286.182 121H286.824V120ZM1 4C1 2.34315 2.34315 1 4 1V-1C1.23858 -1 -1 1.23858 -1 4H1ZM1 116V4H-1V116H1ZM3.99998 119C2.34314 119 1 117.657 1 116H-1C-1 118.761 1.23856 121 3.99998 121V119ZM243.176 119H3.99998V121H243.176V119ZM244.085 120.417C247.72 112.497 255.719 107 265 107V105C254.909 105 246.216 110.979 242.267 119.583L244.085 120.417ZM265 107C274.281 107 282.28 112.497 285.915 120.417L287.733 119.583C283.784 110.979 275.091 105 265 105V107ZM526 119H286.824V121H526V119ZM529 116C529 117.657 527.657 119 526 119V121C528.761 121 531 118.761 531 116H529ZM529 4V116H531V4H529ZM526 1C527.657 1 529 2.34314 529 4H531C531 1.23858 528.761 -1 526 -1V1ZM4 1H526V-1H4V1Z" fill="#8FA7A7" fill-opacity="0.15" mask="url(#path-1-inside-1_20_3682)"/>
</svg>
