<svg width="530" height="120" viewBox="0 0 530 120" fill="none" xmlns="http://www.w3.org/2000/svg">
<mask id="path-1-inside-1_40_3957" fill="white">
<path fill-rule="evenodd" clip-rule="evenodd" d="M244.211 0H4C1.79086 0 0 1.79086 0 4V116C0 118.209 1.79085 120 3.99998 120H526C528.209 120 530 118.209 530 116V4C530 1.79086 528.209 0 526 0H285.789C281.639 7.17362 273.883 12 265 12C256.117 12 248.36 7.17362 244.211 0Z"/>
</mask>
<path fill-rule="evenodd" clip-rule="evenodd" d="M244.211 0H4C1.79086 0 0 1.79086 0 4V116C0 118.209 1.79085 120 3.99998 120H526C528.209 120 530 118.209 530 116V4C530 1.79086 528.209 0 526 0H285.789C281.639 7.17362 273.883 12 265 12C256.117 12 248.36 7.17362 244.211 0Z" fill="#031619"/>
<path d="M244.211 0L245.076 -0.500727L244.788 -1H244.211V0ZM285.789 0V-1H285.212L284.924 -0.500727L285.789 0ZM4 1H244.211V-1H4V1ZM1 4C1 2.34315 2.34315 1 4 1V-1C1.23858 -1 -1 1.23858 -1 4H1ZM1 116V4H-1V116H1ZM3.99998 119C2.34314 119 1 117.657 1 116H-1C-1 118.761 1.23856 121 3.99998 121V119ZM526 119H3.99998V121H526V119ZM529 116C529 117.657 527.657 119 526 119V121C528.761 121 531 118.761 531 116H529ZM529 4V116H531V4H529ZM526 1C527.657 1 529 2.34314 529 4H531C531 1.23858 528.761 -1 526 -1V1ZM285.789 1H526V-1H285.789V1ZM284.924 -0.500727C280.945 6.3766 273.512 11 265 11V13C274.255 13 282.334 7.97063 286.655 0.500727L284.924 -0.500727ZM265 11C256.488 11 249.055 6.3766 245.076 -0.500727L243.345 0.500727C247.666 7.97063 255.745 13 265 13V11Z" fill="#8FA7A7" fill-opacity="0.15" mask="url(#path-1-inside-1_40_3957)"/>
</svg>
