<svg width="532" height="122" viewBox="0 0 532 122" fill="none" xmlns="http://www.w3.org/2000/svg">
<mask id="path-1-outside-1_40_3923" maskUnits="userSpaceOnUse" x="0" y="0" width="532" height="122" fill="black">
<rect fill="white" width="532" height="122"/>
<path fill-rule="evenodd" clip-rule="evenodd" d="M5 1C2.79086 1 1 2.79086 1 5V117C1 119.209 2.79085 121 4.99998 121H244.176C247.968 112.738 256.314 107 266 107C275.686 107 284.032 112.738 287.824 121H527C529.209 121 531 119.209 531 117V5C531 2.79086 529.209 1 527 1H5Z"/>
</mask>
<path fill-rule="evenodd" clip-rule="evenodd" d="M5 1C2.79086 1 1 2.79086 1 5V117C1 119.209 2.79085 121 4.99998 121H244.176C247.968 112.738 256.314 107 266 107C275.686 107 284.032 112.738 287.824 121H527C529.209 121 531 119.209 531 117V5C531 2.79086 529.209 1 527 1H5Z" fill="#031619"/>
<path d="M244.176 121V122H244.817L245.085 121.417L244.176 121ZM287.824 121L286.915 121.417L287.182 122H287.824V121ZM2 5C2 3.34315 3.34315 2 5 2V0C2.23858 0 0 2.23858 0 5H2ZM2 117V5H0V117H2ZM4.99998 120C3.34314 120 2 118.657 2 117H0C0 119.761 2.23856 122 4.99998 122V120ZM244.176 120H4.99998V122H244.176V120ZM245.085 121.417C248.72 113.497 256.719 108 266 108V106C255.909 106 247.216 111.979 243.267 120.583L245.085 121.417ZM266 108C275.281 108 283.28 113.497 286.915 121.417L288.733 120.583C284.784 111.979 276.091 106 266 106V108ZM527 120H287.824V122H527V120ZM530 117C530 118.657 528.657 120 527 120V122C529.761 122 532 119.761 532 117H530ZM530 5V117H532V5H530ZM527 2C528.657 2 530 3.34314 530 5H532C532 2.23858 529.761 0 527 0V2ZM5 2H527V0H5V2Z" fill="#FF4D6C" fill-opacity="0.6" mask="url(#path-1-outside-1_40_3923)"/>
</svg>
