<svg width="16" height="16" viewBox="0 0 16 16" fill="none" xmlns="http://www.w3.org/2000/svg">
<path d="M11.6002 1C12.9003 1.076 14.0703 1.71702 14.6763 3.14305C15.2923 4.59108 15.0183 5.93811 13.9563 7.08914C13.2043 7.90216 12.3963 8.66517 11.6062 9.44319C11.2642 9.7832 10.7152 9.7932 10.4182 9.48119C10.1182 9.16518 10.1502 8.73117 10.5112 8.36917C11.2862 7.59115 12.0713 6.82413 12.8383 6.03911C13.9933 4.85709 13.4803 2.97704 11.8843 2.55303C11.2212 2.37703 10.5842 2.49903 10.0792 2.96904C9.26719 3.72506 8.50317 4.52908 7.69416 5.2861C7.52215 5.4461 7.23914 5.5851 7.01714 5.5711C6.42213 5.5341 6.12112 4.81409 6.53313 4.38508C7.41204 3.45756 8.32502 2.56292 9.27019 1.70302C9.84821 1.183 10.6012 1.005 11.6002 1ZM1 11.4032C1.006 10.4092 1.35201 9.54919 2.04902 8.84118C2.81804 8.05816 3.59906 7.28714 4.37908 6.51412C4.74909 6.14712 5.2041 6.11912 5.5181 6.43412C5.84411 6.76413 5.81211 7.17814 5.4261 7.56615C4.68409 8.31116 3.92907 9.04618 3.19405 9.7992C2.28503 10.7282 2.24703 11.9822 3.08405 12.8253C3.88607 13.6313 5.2111 13.6353 6.04912 12.8193C6.81013 12.0763 7.55115 11.3122 8.31117 10.5692C8.76718 10.1232 9.4602 10.2822 9.5812 10.8822C9.6242 11.0982 9.5372 11.4232 9.38719 11.5822C8.56218 12.4523 7.73716 13.3283 6.83814 14.1183C5.73811 15.0843 4.44808 15.2443 3.10305 14.6583C1.80302 14.0923 1.003 12.8163 1 11.4032ZM11.0712 5.73311C11.0232 5.82311 10.9672 6.01911 10.8412 6.14712C9.32715 7.68405 7.8061 9.2141 6.27812 10.7372C5.95311 11.0622 5.4911 11.0402 5.1861 10.7322C4.87809 10.4212 4.88609 9.9942 5.2291 9.6502C6.72913 8.14616 8.23517 6.64513 9.7392 5.14609C9.98221 4.90309 10.2692 4.80109 10.6012 4.94609C10.8982 5.07409 11.0492 5.3101 11.0712 5.73311Z" fill="#2BFCFC"/>
</svg>
