<svg width="24" height="24" viewBox="0 0 24 24" fill="none" xmlns="http://www.w3.org/2000/svg">
<circle cx="12" cy="12" r="12" fill="#08DEDE"/>
<path d="M14.5808 16.3161L14.0153 16.3128L13.673 15.6783L13.3023 14.9867C13.2833 14.9515 13.2529 14.9251 13.2169 14.9128C13.181 14.9004 13.142 14.9029 13.1077 14.9198H12.5173L12.8051 14.3809H13.5331L14.5808 16.3161Z" fill="white"/>
<path d="M12.8991 15.2475L11.8641 17.1772L9.79418 17.1789L10.0683 16.6452H11.4911C11.4978 16.6451 11.5045 16.6447 11.5111 16.6438H11.5141C11.5371 16.6405 11.559 16.6316 11.5783 16.6178C11.5976 16.604 11.6137 16.5856 11.6254 16.5641L12.3374 15.2481L12.8991 15.2475Z" fill="white"/>
<path d="M14.2134 17.3417L13.1725 19.3364L12.1281 17.3422L13.1733 15.4046L13.411 15.8449L14.2134 17.3417Z" fill="white"/>
<path d="M12.9088 19.5H10.831L9.79341 17.5072L11.8641 17.505L12.9088 19.5Z" fill="white"/>
<path d="M11.2283 16.3169H9.1592L6.91042 12.1188H8.98157L11.2283 16.3169Z" fill="white"/>
<path d="M9.35557 11.1166L8.98259 11.7935L6.91118 11.791L7.17749 11.2994H8.61695C8.62374 11.2994 8.63052 11.2988 8.63723 11.2977L8.64407 11.2964L8.65648 11.2936L8.66408 11.2909C8.66788 11.2895 8.67169 11.2884 8.67523 11.2868L8.68208 11.2832C8.68562 11.2813 8.68942 11.2797 8.69272 11.2775C8.69492 11.2761 8.69704 11.2746 8.69905 11.2729C8.70258 11.2708 8.70597 11.2684 8.70919 11.2658L8.71501 11.2603C8.71805 11.2576 8.72109 11.2548 8.72388 11.2518L8.72971 11.245C8.73225 11.242 8.73478 11.2393 8.73706 11.236C8.73934 11.2327 8.74086 11.23 8.74264 11.227C8.74464 11.2243 8.7465 11.2214 8.74821 11.2185L9.08141 10.607L9.35557 11.1166Z" fill="white"/>
<path d="M12.5416 14.2159L11.4926 16.1549L9.2456 11.9587L9.61858 11.2816L10.9671 11.2822L12.5416 14.2159Z" fill="white"/>
<path d="M15.79 9.85174L13.5349 14.0531H12.8039L12.1364 12.8093L12.9967 11.2046L12.9987 11.2013L13.7198 9.85529L15.0351 9.85174H15.79Z" fill="white"/>
<path d="M17.1111 11.9481L14.8507 16.1544L13.8009 14.2167L16.0603 10.0085L16.7037 11.2059C16.7106 11.2187 16.7191 11.2304 16.729 11.2406L17.1111 11.9481Z" fill="white"/>
<path d="M18.75 8.85998L17.7154 10.7872L16.6811 8.85752L17.7091 6.91743L18.75 8.85998Z" fill="white"/>
<path d="M17.4509 10.9558L16.9279 10.9593L16.1931 9.59936C16.1798 9.57451 16.1607 9.55386 16.1376 9.53948C16.1146 9.5251 16.0885 9.51749 16.0619 9.51742C16.0534 9.51747 16.0449 9.51829 16.0365 9.51987L15.0357 9.52288H14.5976L14.3368 9.02413H16.4146L17.4509 10.9558Z" fill="white"/>
<path d="M17.4463 6.75246L16.4151 8.6961H14.3366L15.3815 6.75246H17.4463Z" fill="white"/>
<path d="M13.9418 8.94083L14.2476 9.52397L13.7186 9.52698L13.3398 8.85752L14.3809 6.91388L14.6571 7.42929L13.9418 8.77667C13.9401 8.77972 13.9387 8.78292 13.9375 8.78623C13.936 8.78951 13.9345 8.79251 13.9332 8.79579C13.9319 8.79907 13.9307 8.80371 13.9294 8.80753C13.9284 8.8103 13.9275 8.81313 13.9269 8.816C13.9254 8.82137 13.9244 8.82685 13.9238 8.83239C13.9237 8.83384 13.9237 8.83531 13.9238 8.83676C13.9222 8.85073 13.9222 8.86486 13.9238 8.87882C13.9238 8.88046 13.9238 8.88183 13.9238 8.88319C13.9245 8.88871 13.9254 8.89418 13.9266 8.89958C13.9266 8.90204 13.9281 8.90395 13.9286 8.90614C13.9291 8.90832 13.9312 8.91542 13.9329 8.92007C13.9347 8.92471 13.9352 8.92498 13.9365 8.92772C13.938 8.93221 13.9398 8.93659 13.9418 8.94083Z" fill="white"/>
<path d="M13.4566 9.69359L12.7803 10.9549H9.61984L8.58224 9.0173L13.0775 9.02468L13.3256 9.4617L13.4566 9.69359Z" fill="white"/>
<path d="M14.1177 6.75L13.0755 8.69582L8.58174 8.68845L9.61985 6.75H14.1177Z" fill="white"/>
<path d="M8.90784 10.2797L8.79736 10.4821L8.62076 10.8077L7.58923 8.86052L8.62988 6.91634L8.9048 7.4312L8.18823 8.76957C8.17156 8.80081 8.1648 8.83706 8.16897 8.87281V8.87664C8.16897 8.88101 8.17049 8.88538 8.17151 8.88975C8.17252 8.89412 8.17151 8.89248 8.17151 8.89357C8.17162 8.89494 8.17162 8.89631 8.17151 8.89767C8.17293 8.90296 8.17462 8.90815 8.17657 8.91324C8.17911 8.91925 8.1819 8.92553 8.18494 8.93126V8.93263L8.90784 10.2797Z" fill="white"/>
<path d="M8.35572 10.9716H6.27012L5.25 9.02413L7.32445 9.02468L8.35572 10.9716Z" fill="white"/>
<path d="M8.3656 6.75273L7.32495 8.69691L5.25279 8.69637L6.29394 6.75218L8.3656 6.75273Z" fill="white"/>
</svg>
