<svg width="150" height="28" viewBox="0 0 150 28" fill="none" xmlns="http://www.w3.org/2000/svg">
<g clip-path="url(#clip0_20_3806)">
<path d="M18.1431 28H13.2116L10.7568 23.7239H15.6823L18.1431 28Z" fill="#63D8D8"/>
<path d="M18.1433 18.634L17.2275 20.2372L15.6765 22.9745H10.749L11.6688 21.3593H14.6125C14.6218 21.3602 14.6312 21.3602 14.6405 21.3593H14.6986C14.7187 21.3497 14.7381 21.3391 14.7568 21.3272H14.7688L14.8189 21.2852L14.8409 21.259L14.8549 21.2432L14.877 21.209L14.889 21.187L16.3238 18.7022L16.3058 18.6701L18.1433 18.634Z" fill="#63D8D8"/>
<path d="M21.2651 23.329L18.7903 27.6212L16.3296 23.3469L18.7903 19.0046L21.2651 23.329Z" fill="#63D8D8"/>
<path d="M20.6357 4.75917L21.5134 6.29815H19.8743L18.8223 4.46459L21.1787 0.366699L22.0044 1.78143L20.5637 4.30428C20.5551 4.31836 20.5476 4.33311 20.5417 4.34838C20.5417 4.34838 20.5417 4.36641 20.5316 4.37443V4.45858C20.534 4.51925 20.5512 4.57842 20.5816 4.63091L20.6357 4.75917Z" fill="#63D8D8"/>
<path d="M31.8171 4.6028L29.5809 8.73076L29.5749 8.71874L27.1182 4.48456L29.3824 0.388672L31.8151 4.6028H31.8171Z" fill="#63D8D8"/>
<path d="M28.7393 0.00390625L26.4769 4.09379L26.4629 4.11784H21.5215L22.7117 2.05987L22.87 1.78534L23.886 0.0339643L28.7393 0.00390625Z" fill="#63D8D8"/>
<path d="M28.9537 9.13568H27.2284V9.10962L25.7134 6.47654L25.6893 6.44248C25.677 6.42635 25.6628 6.41158 25.6473 6.3984L25.6372 6.38838L25.5893 6.35431L25.5351 6.32826C25.5165 6.32015 25.4969 6.31411 25.4769 6.31022C25.4508 6.30395 25.4239 6.30059 25.3968 6.3002H22.3629L21.5435 4.87145H21.5634L23.3668 4.86143H24.2186L26.4748 4.84741L26.489 4.87145L28.9396 9.11563L28.9537 9.13568Z" fill="#63D8D8"/>
<path d="M22.3613 20.5998H20.5577L19.1149 18.0809L19.103 18.0589L19.0888 18.0388L19.0729 18.0208L19.0548 18.0027L19.0367 17.9867L19.0207 17.9526L18.9807 17.9246L18.9566 17.9146H18.8906C18.8805 17.9127 18.8704 17.9127 18.8605 17.9146H16.7744L17.6762 16.3516H19.8805L22.3613 20.5998Z" fill="#63D8D8"/>
<path d="M27.8878 11.8087L23.0143 20.229L20.5415 15.9447L24.1606 9.57844V9.57642L24.1765 9.54837L25.3889 7.41626L26.3508 9.11554L26.3608 9.13158L26.5992 9.54837L26.6093 9.5644L26.7795 9.86297L26.7876 9.87901L26.7956 9.89303L27.8878 11.8087Z" fill="#63D8D8"/>
<path d="M19.8381 15.5721L17.6919 15.564L16.3213 13.1794L18.4434 9.56247L18.4514 9.54843L18.6978 9.12763L19.6778 7.46042L19.848 7.16584L19.9143 7.05363H20.305L21.9462 7.0476L22.2768 7.04561H22.6495L23.0363 7.04361L24.6894 7.0376L19.8381 15.5721Z" fill="#63D8D8"/>
<path d="M17.0366 15.9248L16.8142 16.3095L15.9104 17.8766L15.8944 17.9066L15.4796 18.624L15.4616 18.6561L14.5558 20.225L14.3634 19.8864L9.72852 11.7708L10.8186 9.8631L13.5439 9.86108L13.5479 9.86709L15.4535 13.1775L15.4796 13.2216L15.8844 13.9229L15.9084 13.967L16.8262 15.5621L17.0366 15.9248Z" fill="#63D8D8"/>
<path d="M10.1555 9.51247L10.1375 9.54252L9.07742 11.3961L4.1499 11.3701L5.00956 9.8892H8.14561C8.16023 9.89127 8.17507 9.89127 8.1897 9.8892H8.24981L8.28587 9.87516L8.32595 9.85112L8.36403 9.82306L8.38206 9.80503C8.40609 9.78104 8.42696 9.75411 8.44419 9.72488L9.32389 8.1358L9.33591 8.11377L10.1555 9.51247Z" fill="#63D8D8"/>
<path d="M13.9108 20.6078L12.0953 20.6177L11.2296 20.6237L9.02736 20.6358L4.14795 12.1213L9.07746 12.1454L12.5722 18.2652L12.7105 18.5057L13.003 19.0206L13.9108 20.6078Z" fill="#63D8D8"/>
<path d="M7.46233 9.13967L2.45067 9.14169L0.00195312 4.86743H4.92945L7.46233 9.13967Z" fill="#63D8D8"/>
<path d="M19.2471 6.71085L17.8303 9.12351L13.9808 9.1195H10.7907V9.11549H10.7566L10.7466 9.09947L9.75269 7.36011L9.61241 7.11563L9.31384 6.59663L8.31592 4.85327H18.1789L18.191 4.87332L19.2471 6.71085Z" fill="#63D8D8"/>
<path d="M20.5278 0L18.1713 4.10592L18.1593 4.12595L11.1197 4.10993H10.24L8.63091 4.10792H8.32031L9.26414 2.52889L9.69898 1.80749L10.7771 0.014027L20.5278 0Z" fill="#63D8D8"/>
<path d="M8.89741 7.33218L8.88738 7.34822L8.10588 8.75092L7.12999 7.09973L5.58301 4.48669L7.93555 0.364746L8.82326 1.80352L7.34843 4.26827C7.31477 4.32465 7.29678 4.38899 7.29631 4.45464C7.29605 4.5205 7.31261 4.58533 7.34441 4.64299L7.35843 4.66503L8.3263 6.34027L8.75914 7.0877L8.89741 7.33218Z" fill="#63D8D8"/>
<path d="M7.27804 0.0141602L4.93552 4.11808H0L2.34451 0.0141602H7.27804Z" fill="#63D8D8"/>
<path d="M49.9238 16.2832L49.9434 16.3418C49.9694 17.7806 49.5007 18.9525 48.5371 19.8574C47.5801 20.7559 46.2812 21.2051 44.6406 21.2051C42.9805 21.2051 41.6296 20.6484 40.5879 19.5352C39.5527 18.4154 39.0352 16.9863 39.0352 15.248V12.543C39.0352 10.8112 39.5462 9.38542 40.5684 8.26562C41.597 7.13932 42.9316 6.57617 44.5723 6.57617C46.252 6.57617 47.5736 7.01888 48.5371 7.9043C49.5072 8.7832 49.9792 9.9681 49.9531 11.459L49.9336 11.5176H47.6387C47.6387 10.5605 47.3783 9.8151 46.8574 9.28125C46.3431 8.7474 45.5814 8.48047 44.5723 8.48047C43.6022 8.48047 42.8307 8.86458 42.2578 9.63281C41.6914 10.401 41.4082 11.3646 41.4082 12.5234V15.248C41.4082 16.4199 41.6979 17.39 42.2773 18.1582C42.8633 18.9264 43.651 19.3105 44.6406 19.3105C45.6237 19.3105 46.3691 19.0469 46.877 18.5195C47.3848 17.9922 47.6387 17.2467 47.6387 16.2832H49.9238ZM58.5469 19.457C58.2148 20.0169 57.7949 20.4499 57.2871 20.7559C56.7793 21.0553 56.1934 21.2051 55.5293 21.2051C54.3965 21.2051 53.5111 20.8438 52.873 20.1211C52.235 19.3984 51.916 18.2754 51.916 16.752V10.4336H54.2793V16.7715C54.2793 17.696 54.429 18.3438 54.7285 18.7148C55.028 19.0859 55.4805 19.2715 56.0859 19.2715C56.6589 19.2715 57.1374 19.1706 57.5215 18.9688C57.9121 18.7604 58.2181 18.4609 58.4395 18.0703V10.4336H60.8125V21H58.7422L58.5469 19.457ZM72.5703 16.0684C72.5703 17.6113 72.209 18.8548 71.4863 19.7988C70.7702 20.7363 69.7578 21.2051 68.4492 21.2051C67.7917 21.2051 67.2188 21.0716 66.7305 20.8047C66.2487 20.5378 65.8451 20.1471 65.5195 19.6328L65.2852 21H63.293V5.76562H65.666V11.6348C65.9915 11.1855 66.3822 10.8405 66.8379 10.5996C67.2936 10.3587 67.8242 10.2383 68.4297 10.2383C69.7513 10.2383 70.7702 10.7526 71.4863 11.7812C72.209 12.8099 72.5703 14.1706 72.5703 15.8633V16.0684ZM70.1973 15.8633C70.1973 14.763 70.0085 13.8743 69.6309 13.1973C69.2533 12.5202 68.6543 12.1816 67.834 12.1816C67.3066 12.1816 66.8639 12.2988 66.5059 12.5332C66.1543 12.7676 65.8743 13.0931 65.666 13.5098V17.9434C65.8678 18.3665 66.1478 18.6953 66.5059 18.9297C66.8639 19.1576 67.3132 19.2715 67.8535 19.2715C68.6738 19.2715 69.2695 18.985 69.6406 18.4121C70.0117 17.8327 70.1973 17.0514 70.1973 16.0684V15.8633ZM79.1523 21.2051C77.6549 21.2051 76.4603 20.7168 75.5684 19.7402C74.6829 18.7572 74.2402 17.4974 74.2402 15.9609V15.5703C74.2402 14.0339 74.6797 12.7611 75.5586 11.752C76.444 10.7363 77.5508 10.2318 78.8789 10.2383C80.3047 10.2383 81.3952 10.6712 82.1504 11.5371C82.9121 12.3965 83.293 13.5521 83.293 15.0039V16.4004H76.7012L76.6816 16.4492C76.7207 17.2891 76.9648 17.9759 77.4141 18.5098C77.8698 19.0436 78.498 19.3105 79.2988 19.3105C79.9368 19.3105 80.4837 19.2324 80.9395 19.0762C81.3952 18.9199 81.8346 18.6953 82.2578 18.4023L83.0195 19.9551C82.6224 20.3066 82.0951 20.6029 81.4375 20.8438C80.7799 21.0846 80.0182 21.2051 79.1523 21.2051ZM78.8789 12.1426C78.293 12.1426 77.8112 12.377 77.4336 12.8457C77.056 13.3079 76.8216 13.8971 76.7305 14.6133L76.75 14.6621H80.9395V14.418C80.9395 13.7474 80.7669 13.2005 80.4219 12.7773C80.0833 12.3542 79.569 12.1426 78.8789 12.1426ZM90.4902 21V6.78125H95.2168C96.7923 6.78125 98.0228 7.10677 98.9082 7.75781C99.7936 8.40234 100.236 9.36914 100.236 10.6582C100.236 11.3027 100.051 11.8789 99.6797 12.3867C99.3086 12.8945 98.7943 13.2721 98.1367 13.5195C98.9831 13.7083 99.6341 14.1152 100.09 14.7402C100.546 15.3652 100.773 16.0911 100.773 16.918C100.773 18.2526 100.337 19.2682 99.4648 19.9648C98.5924 20.6549 97.388 21 95.8516 21H90.4902ZM92.8633 14.5352V19.1055H95.8516C96.6719 19.1055 97.3034 18.9199 97.7461 18.5488C98.1888 18.1712 98.4102 17.6276 98.4102 16.918C98.4102 16.1628 98.2246 15.5768 97.8535 15.1602C97.4824 14.7435 96.903 14.5352 96.1152 14.5352H92.8633ZM92.8633 12.7676H95.4805C96.2161 12.7676 96.7956 12.5951 97.2188 12.25C97.6484 11.8984 97.8633 11.4036 97.8633 10.7656C97.8633 10.0625 97.6387 9.54167 97.1895 9.20312C96.7402 8.85807 96.0827 8.68555 95.2168 8.68555H92.8633V12.7676ZM108.264 12.5723L107.248 12.5332C106.786 12.5332 106.398 12.6309 106.086 12.8262C105.78 13.0215 105.542 13.2982 105.373 13.6562V21H103V10.4336H105.168L105.324 11.9668C105.591 11.4264 105.933 11.0033 106.35 10.6973C106.773 10.3913 107.258 10.2383 107.805 10.2383C107.948 10.2383 108.081 10.2513 108.205 10.2773C108.329 10.2969 108.443 10.3229 108.547 10.3555L108.264 12.5723ZM112.463 21H110.09V10.4336H112.463V21ZM112.463 7.8457H110.09V5.76562H112.463V7.8457ZM114.689 15.8633C114.689 14.1771 115.051 12.8197 115.773 11.791C116.496 10.7559 117.512 10.2383 118.82 10.2383C119.393 10.2383 119.904 10.3555 120.354 10.5898C120.809 10.8177 121.203 11.1465 121.535 11.5762V5.76562H123.908V21H121.916L121.682 19.6914C121.343 20.1862 120.936 20.5638 120.461 20.8242C119.986 21.0781 119.432 21.2051 118.801 21.2051C117.505 21.2051 116.496 20.7331 115.773 19.7891C115.051 18.8451 114.689 17.6048 114.689 16.0684V15.8633ZM117.062 16.0684C117.062 17.0449 117.248 17.8229 117.619 18.4023C117.997 18.9818 118.592 19.2715 119.406 19.2715C119.908 19.2715 120.331 19.1641 120.676 18.9492C121.027 18.7344 121.314 18.4284 121.535 18.0312V13.4219C121.314 13.0312 121.027 12.7285 120.676 12.5137C120.324 12.2923 119.908 12.1816 119.426 12.1816C118.618 12.1816 118.023 12.5234 117.639 13.207C117.255 13.8841 117.062 14.7695 117.062 15.8633V16.0684ZM126.027 15.8633C126.027 14.1836 126.395 12.8262 127.131 11.791C127.867 10.7559 128.889 10.2383 130.197 10.2383C130.829 10.2383 131.382 10.375 131.857 10.6484C132.339 10.9154 132.746 11.3027 133.078 11.8105L133.312 10.4336H135.285V21C135.285 22.3607 134.865 23.4121 134.025 24.1543C133.186 24.8965 131.994 25.2676 130.451 25.2676C129.937 25.2676 129.38 25.1927 128.781 25.043C128.189 24.8997 127.652 24.7077 127.17 24.4668L127.678 22.6016C128.068 22.8034 128.498 22.9596 128.967 23.0703C129.442 23.1875 129.93 23.2461 130.432 23.2461C131.291 23.2461 131.919 23.0605 132.316 22.6895C132.714 22.3249 132.912 21.7617 132.912 21V19.916C132.58 20.3392 132.186 20.6615 131.73 20.8828C131.281 21.0977 130.764 21.2051 130.178 21.2051C128.882 21.2051 127.867 20.7331 127.131 19.7891C126.395 18.8451 126.027 17.6048 126.027 16.0684V15.8633ZM128.4 16.0684C128.4 17.0384 128.592 17.8164 128.977 18.4023C129.367 18.9818 129.969 19.2715 130.783 19.2715C131.291 19.2715 131.717 19.1673 132.062 18.959C132.414 18.7441 132.697 18.4382 132.912 18.041V13.4121C132.691 13.028 132.404 12.7285 132.053 12.5137C131.708 12.2923 131.291 12.1816 130.803 12.1816C129.989 12.1816 129.383 12.5234 128.986 13.207C128.596 13.8906 128.4 14.776 128.4 15.8633V16.0684ZM142.316 21.2051C140.819 21.2051 139.624 20.7168 138.732 19.7402C137.847 18.7572 137.404 17.4974 137.404 15.9609V15.5703C137.404 14.0339 137.844 12.7611 138.723 11.752C139.608 10.7363 140.715 10.2318 142.043 10.2383C143.469 10.2383 144.559 10.6712 145.314 11.5371C146.076 12.3965 146.457 13.5521 146.457 15.0039V16.4004H139.865L139.846 16.4492C139.885 17.2891 140.129 17.9759 140.578 18.5098C141.034 19.0436 141.662 19.3105 142.463 19.3105C143.101 19.3105 143.648 19.2324 144.104 19.0762C144.559 18.9199 144.999 18.6953 145.422 18.4023L146.184 19.9551C145.786 20.3066 145.259 20.6029 144.602 20.8438C143.944 21.0846 143.182 21.2051 142.316 21.2051ZM142.043 12.1426C141.457 12.1426 140.975 12.377 140.598 12.8457C140.22 13.3079 139.986 13.8971 139.895 14.6133L139.914 14.6621H144.104V14.418C144.104 13.7474 143.931 13.2005 143.586 12.7773C143.247 12.3542 142.733 12.1426 142.043 12.1426Z" fill="white"/>
</g>
<defs>
<clipPath id="clip0_20_3806">
<rect width="150" height="28" fill="white"/>
</clipPath>
</defs>
</svg>
