<svg width="24" height="24" viewBox="0 0 24 24" fill="none" xmlns="http://www.w3.org/2000/svg">
<path fill-rule="evenodd" clip-rule="evenodd" d="M12.0002 0C5.37255 0 0 5.37255 0 12.0002C0 18.6279 5.37255 24.0005 12.0002 24.0005C18.6279 24.0005 24.0005 18.6279 24.0005 12.0002C24.0005 5.37255 18.6279 0 12.0002 0Z" fill="#5778CE"/>
<path fill-rule="evenodd" clip-rule="evenodd" d="M12.0326 5.59924L8.01465 12.2656L12.0326 14.6394V5.59924Z" fill="white"/>
<path fill-rule="evenodd" clip-rule="evenodd" d="M12.0322 5.59949V14.6396L16.0484 12.2659L12.0322 5.59949Z" fill="white"/>
<path fill-rule="evenodd" clip-rule="evenodd" d="M8.01501 12.2651L12.0329 14.6388V10.4377L8.01501 12.2651Z" fill="white"/>
<path fill-rule="evenodd" clip-rule="evenodd" d="M12.0329 19.1995V15.9129L8.01501 13.5392L12.0329 19.1995Z" fill="white"/>
<path fill-rule="evenodd" clip-rule="evenodd" d="M12.0322 15.913V19.1996L16.0516 13.5392L12.0322 15.913Z" fill="white"/>
<path fill-rule="evenodd" clip-rule="evenodd" d="M12.0322 14.6398L16.0501 12.2619L12.0322 10.4313V14.6398Z" fill="white"/>
</svg>
