<svg width="14" height="14" viewBox="0 0 14 14" fill="none" xmlns="http://www.w3.org/2000/svg">
<path fill-rule="evenodd" clip-rule="evenodd" d="M12.3086 1.07678C11.9909 0.792378 11.5089 0.810901 11.2133 1.11789C10.9202 1.42232 10.912 1.90485 11.194 2.21933L11.2256 2.2551H10.57C8.96934 2.2551 7.76711 2.67392 6.97669 3.6425C6.19683 4.59814 5.86251 6.03711 5.86251 7.97254L5.8623 8.05136L5.86271 8.06169C5.87422 8.35404 6.0414 8.6194 6.30289 8.75196C6.56496 8.88481 6.87755 8.86153 7.11743 8.69205C7.35264 8.52587 7.48013 8.24623 7.45587 7.96039C7.45699 6.35954 7.68021 5.35026 8.15567 4.73845C8.61706 4.14475 9.36434 3.86881 10.585 3.86881H11.2136L11.1876 3.89529C10.8778 4.21069 10.8778 4.72013 11.1876 5.03551C11.5 5.3535 12.0085 5.35349 12.3208 5.03549L13.529 3.80562L13.5329 3.80149C13.9224 3.38749 13.9224 2.73637 13.533 2.32237L12.3149 1.0824L12.3086 1.07678Z" fill="white"/>
<path fill-rule="evenodd" clip-rule="evenodd" d="M6.6754 0.701212C6.77147 1.17482 6.46543 1.63663 5.99182 1.73271C3.57277 2.22344 1.75 4.36778 1.75 6.93861C1.75 9.87368 4.1244 12.2502 7.04988 12.2502C9.64908 12.2502 11.8146 10.3736 12.2641 7.89584C12.3503 7.42035 12.8057 7.10481 13.2812 7.19106C13.7567 7.27731 14.0722 7.73269 13.986 8.20818C13.3886 11.5012 10.5125 14.0002 7.04988 14.0002C3.15478 14.0002 0 10.837 0 6.93861C0 3.5213 2.42298 0.671037 5.6439 0.0176383C6.11751 -0.0784373 6.57932 0.227609 6.6754 0.701212Z" fill="white"/>
</svg>
