<svg width="1390" height="634" viewBox="0 0 1390 634" fill="none" xmlns="http://www.w3.org/2000/svg">
<g opacity="0.1" filter="url(#filter0_f_20_3525)">
<ellipse cx="695" cy="167" rx="167" ry="395" transform="rotate(-90 695 167)" fill="#2BFCFC"/>
</g>
<g opacity="0.015">
<path d="M358.392 362.728H316.698L295.944 326.575H337.587L358.392 362.728Z" fill="white"/>
<path d="M358.394 283.543L350.651 297.097L337.538 320.239H295.878L303.655 306.583H328.542C328.621 306.591 328.7 306.591 328.779 306.583H329.271C329.44 306.503 329.604 306.413 329.762 306.312H329.863L330.287 305.957L330.473 305.736L330.592 305.602L330.778 305.313L330.88 305.127L343.01 284.119L342.858 283.848L358.394 283.543Z" fill="white"/>
<path d="M384.787 323.236L363.864 359.525L343.06 323.388L363.864 286.676L384.787 323.236Z" fill="white"/>
<path d="M379.466 166.237L386.887 179.248H373.029L364.134 163.746L384.057 129.1L391.037 141.061L378.857 162.391C378.784 162.51 378.721 162.635 378.671 162.764C378.671 162.764 378.671 162.916 378.585 162.984V163.695C378.606 164.208 378.751 164.709 379.008 165.152L379.466 166.237Z" fill="white"/>
<path d="M474 164.915L455.093 199.815L455.043 199.713L434.272 163.915L453.416 129.286L473.983 164.915H474Z" fill="white"/>
<path d="M447.978 126.033L428.851 160.611L428.732 160.815H386.955L397.017 143.415L398.355 141.094L406.945 126.287L447.978 126.033Z" fill="white"/>
<path d="M449.791 203.238H435.204V203.018L422.396 180.756L422.192 180.468C422.088 180.332 421.968 180.207 421.837 180.096L421.752 180.011L421.346 179.723L420.889 179.503C420.731 179.434 420.565 179.383 420.396 179.35C420.175 179.297 419.948 179.269 419.719 179.265H394.069L387.141 167.186H387.309L402.556 167.101H409.758L428.833 166.983L428.953 167.186L449.671 203.069L449.791 203.238Z" fill="white"/>
<path d="M394.055 300.162H378.806L366.608 278.866L366.507 278.68L366.387 278.51L366.253 278.358L366.1 278.205L365.947 278.07L365.811 277.782L365.474 277.545L365.27 277.46H364.711C364.626 277.444 364.541 277.444 364.457 277.46H346.82L354.444 264.245H373.081L394.055 300.162Z" fill="white"/>
<path d="M440.779 225.838L399.576 297.028L378.669 260.806L409.267 206.982V206.964L409.401 206.727L419.652 188.701L427.784 203.068L427.869 203.203L429.885 206.727L429.97 206.863L431.409 209.387L431.477 209.523L431.545 209.641L440.779 225.838Z" fill="white"/>
<path d="M372.723 257.655L354.578 257.587L342.99 237.426L360.931 206.847L360.999 206.728L363.082 203.17L371.367 189.075L372.807 186.584L373.367 185.635H376.67L390.545 185.584L393.34 185.568H396.492L399.762 185.551L413.738 185.5L372.723 257.655Z" fill="white"/>
<path d="M349.037 260.637L347.156 263.89L339.516 277.138L339.38 277.393L335.873 283.458L335.721 283.729L328.063 296.994L326.437 294.131L287.25 225.517L296.467 209.388L319.507 209.371L319.541 209.422L335.653 237.41L335.873 237.783L339.295 243.712L339.499 244.085L347.258 257.571L349.037 260.637Z" fill="white"/>
<path d="M290.86 206.424L290.708 206.678L281.746 222.349L240.086 222.129L247.354 209.609H273.868C273.991 209.626 274.117 209.626 274.24 209.609H274.749L275.054 209.49L275.392 209.287L275.714 209.05L275.867 208.897C276.07 208.695 276.246 208.467 276.392 208.22L283.83 194.785L283.931 194.598L290.86 206.424Z" fill="white"/>
<path d="M322.61 300.23L307.26 300.314L299.942 300.364L281.322 300.467L240.069 228.481L281.746 228.684L311.292 280.424L312.461 282.457L314.935 286.811L322.61 300.23Z" fill="white"/>
<path d="M268.091 203.272L225.719 203.289L205.017 167.152H246.676L268.091 203.272Z" fill="white"/>
<path d="M367.726 182.737L355.747 203.135L323.202 203.101H296.231V203.068H295.943L295.858 202.932L287.455 188.227L286.269 186.16L283.745 181.772L275.308 167.032H358.695L358.797 167.202L367.726 182.737Z" fill="white"/>
<path d="M378.554 126L358.63 160.714L358.529 160.883L299.012 160.748H291.575L277.97 160.731H275.344L283.324 147.381L287 141.282L296.115 126.119L378.554 126Z" fill="white"/>
<path d="M280.224 187.99L280.139 188.126L273.532 199.985L265.281 186.025L252.202 163.933L272.092 129.084L279.597 141.248L267.128 162.086C266.843 162.563 266.691 163.107 266.687 163.662C266.685 164.219 266.825 164.767 267.094 165.254L267.213 165.441L275.395 179.604L279.055 185.923L280.224 187.99Z" fill="white"/>
<path d="M266.533 126.12L246.728 160.817H205L224.822 126.12H266.533Z" fill="white"/>
</g>
<defs>
<filter id="filter0_f_20_3525" x="0" y="-300" width="1390" height="934" filterUnits="userSpaceOnUse" color-interpolation-filters="sRGB">
<feFlood flood-opacity="0" result="BackgroundImageFix"/>
<feBlend mode="normal" in="SourceGraphic" in2="BackgroundImageFix" result="shape"/>
<feGaussianBlur stdDeviation="150" result="effect1_foregroundBlur_20_3525"/>
</filter>
</defs>
</svg>
