<svg width="12" height="12" viewBox="0 0 12 12" fill="none" xmlns="http://www.w3.org/2000/svg">
<path fill-rule="evenodd" clip-rule="evenodd" d="M12 6C12 9.31371 9.31371 12 6 12C2.68629 12 0 9.31371 0 6C0 2.68629 2.68629 0 6 0C9.31371 0 12 2.68629 12 6ZM6 2.69988C6.44183 2.69988 6.8 3.05805 6.8 3.49988L6.8 6.49988C6.8 6.94171 6.44183 7.29988 6 7.29988C5.55817 7.29988 5.2 6.94171 5.2 6.49988V3.49988C5.2 3.05805 5.55817 2.69988 6 2.69988ZM6.0002 9.59988C6.44202 9.59988 6.8002 9.24171 6.8002 8.79988C6.8002 8.35805 6.44202 7.99988 6.0002 7.99988C5.55837 7.99988 5.2002 8.35805 5.2002 8.79988C5.2002 9.24171 5.55837 9.59988 6.0002 9.59988Z" fill="#FF4D6C"/>
</svg>
