<svg width="17" height="16" viewBox="0 0 17 16" fill="none" xmlns="http://www.w3.org/2000/svg">
<path d="M15.2582 1L9.39844 5.375L10.4881 2.79667L15.2582 1Z" fill="#E17726" stroke="#E17726" stroke-width="0.0583333" stroke-linecap="round" stroke-linejoin="round"/>
<path d="M1.7417 1L7.54927 5.41583L6.51179 2.79667L1.7417 1Z" fill="#E27625" stroke="#E27625" stroke-width="0.0583333" stroke-linecap="round" stroke-linejoin="round"/>
<path d="M13.1482 11.1442L11.5891 13.5475L14.9276 14.475L15.8839 11.1967L13.1482 11.1442Z" fill="#E27625" stroke="#E27625" stroke-width="0.0583333" stroke-linecap="round" stroke-linejoin="round"/>
<path d="M1.12158 11.1967L2.07212 14.475L5.40481 13.5475L3.85149 11.1442L1.12158 11.1967Z" fill="#E27625" stroke="#E27625" stroke-width="0.0583333" stroke-linecap="round" stroke-linejoin="round"/>
<path d="M5.22496 7.08416L4.29761 8.49583L7.60132 8.6475L7.49119 5.06L5.22496 7.08416Z" fill="#E27625" stroke="#E27625" stroke-width="0.0583333" stroke-linecap="round" stroke-linejoin="round"/>
<path d="M11.7748 7.08417L9.47379 5.01917L9.39844 8.6475L12.7021 8.49583L11.7748 7.08417Z" fill="#E27625" stroke="#E27625" stroke-width="0.0583333" stroke-linecap="round" stroke-linejoin="round"/>
<path d="M5.40503 13.5475L7.40464 12.5733L5.68324 11.22L5.40503 13.5475Z" fill="#E27625" stroke="#E27625" stroke-width="0.0583333" stroke-linecap="round" stroke-linejoin="round"/>
<path d="M9.59521 12.5733L11.589 13.5475L11.3166 11.22L9.59521 12.5733Z" fill="#E27625" stroke="#E27625" stroke-width="0.0583333" stroke-linecap="round" stroke-linejoin="round"/>
<path d="M11.5893 13.5475L9.59546 12.5733L9.75775 13.88L9.74036 14.4342L11.5893 13.5475Z" fill="#D5BFB2" stroke="#D5BFB2" stroke-width="0.0583333" stroke-linecap="round" stroke-linejoin="round"/>
<path d="M5.40527 13.5475L7.25999 14.4342L7.2484 13.88L7.40489 12.5733L5.40527 13.5475Z" fill="#D5BFB2" stroke="#D5BFB2" stroke-width="0.0583333" stroke-linecap="round" stroke-linejoin="round"/>
<path d="M7.29437 10.3567L5.63672 9.86667L6.80751 9.32417L7.29437 10.3567Z" fill="#233447" stroke="#233447" stroke-width="0.0583333" stroke-linecap="round" stroke-linejoin="round"/>
<path d="M9.70557 10.3567L10.1924 9.32417L11.369 9.86667L9.70557 10.3567Z" fill="#233447" stroke="#233447" stroke-width="0.0583333" stroke-linecap="round" stroke-linejoin="round"/>
<path d="M5.40489 13.5475L5.69468 11.1442L3.85156 11.1967L5.40489 13.5475Z" fill="#CC6228" stroke="#CC6228" stroke-width="0.0583333" stroke-linecap="round" stroke-linejoin="round"/>
<path d="M11.3054 11.1442L11.5894 13.5475L13.1485 11.1967L11.3054 11.1442Z" fill="#CC6228" stroke="#CC6228" stroke-width="0.0583333" stroke-linecap="round" stroke-linejoin="round"/>
<path d="M12.7024 8.49583L9.39868 8.6475L9.70587 10.3567L10.1927 9.32417L11.3693 9.86667L12.7024 8.49583Z" fill="#CC6228" stroke="#CC6228" stroke-width="0.0583333" stroke-linecap="round" stroke-linejoin="round"/>
<path d="M5.63672 9.86667L6.80751 9.32417L7.29437 10.3567L7.60156 8.6475L4.29785 8.49583L5.63672 9.86667Z" fill="#CC6228" stroke="#CC6228" stroke-width="0.0583333" stroke-linecap="round" stroke-linejoin="round"/>
<path d="M4.29785 8.49583L5.68309 11.22L5.63672 9.86667L4.29785 8.49583Z" fill="#E27525" stroke="#E27525" stroke-width="0.0583333" stroke-linecap="round" stroke-linejoin="round"/>
<path d="M11.3691 9.86667L11.3169 11.22L12.7021 8.49583L11.3691 9.86667Z" fill="#E27525" stroke="#E27525" stroke-width="0.0583333" stroke-linecap="round" stroke-linejoin="round"/>
<path d="M7.60186 8.64749L7.29468 10.3567L7.68301 12.375L7.76995 9.71499L7.60186 8.64749Z" fill="#E27525" stroke="#E27525" stroke-width="0.0583333" stroke-linecap="round" stroke-linejoin="round"/>
<path d="M9.39837 8.64749L9.23608 9.70916L9.31723 12.375L9.70556 10.3567L9.39837 8.64749Z" fill="#E27525" stroke="#E27525" stroke-width="0.0583333" stroke-linecap="round" stroke-linejoin="round"/>
<path d="M9.70547 10.3567L9.31714 12.375L9.59535 12.5733L11.3168 11.22L11.3689 9.86667L9.70547 10.3567Z" fill="#F5841F" stroke="#F5841F" stroke-width="0.0583333" stroke-linecap="round" stroke-linejoin="round"/>
<path d="M5.63672 9.86667L5.68309 11.22L7.40449 12.5733L7.6827 12.375L7.29437 10.3567L5.63672 9.86667Z" fill="#F5841F" stroke="#F5841F" stroke-width="0.0583333" stroke-linecap="round" stroke-linejoin="round"/>
<path d="M9.74067 14.4342L9.75806 13.88L9.60736 13.7517H7.3933L7.2484 13.88L7.25999 14.4342L5.40527 13.5475L6.05442 14.0842L7.37011 15H9.62475L10.9462 14.0842L11.5896 13.5475L9.74067 14.4342Z" fill="#C0AC9D" stroke="#C0AC9D" stroke-width="0.0583333" stroke-linecap="round" stroke-linejoin="round"/>
<path d="M9.59542 12.5733L9.31721 12.375H7.68275L7.40454 12.5733L7.24805 13.88L7.39295 13.7517H9.60701L9.75771 13.88L9.59542 12.5733Z" fill="#161616" stroke="#161616" stroke-width="0.0583333" stroke-linecap="round" stroke-linejoin="round"/>
<path d="M15.5074 5.66083L16 3.24583L15.2581 1L9.59546 5.22917L11.7747 7.08417L14.8524 7.98833L15.5305 7.18917L15.2349 6.97333L15.7044 6.54167L15.3451 6.26167L15.8145 5.9L15.5074 5.66083Z" fill="#763E1A" stroke="#763E1A" stroke-width="0.0583333" stroke-linecap="round" stroke-linejoin="round"/>
<path d="M1 3.24583L1.49845 5.66083L1.17968 5.9L1.65495 6.26167L1.2956 6.54167L1.76507 6.97333L1.46947 7.18917L2.1476 7.98833L5.22527 7.08417L7.40456 5.22917L1.74189 1L1 3.24583Z" fill="#763E1A" stroke="#763E1A" stroke-width="0.0583333" stroke-linecap="round" stroke-linejoin="round"/>
<path d="M14.8522 7.98833L11.7745 7.08417L12.7019 8.49583L11.3167 11.22L13.1482 11.1967H15.8839L14.8522 7.98833Z" fill="#F5841F" stroke="#F5841F" stroke-width="0.0583333" stroke-linecap="round" stroke-linejoin="round"/>
<path d="M5.22514 7.08417L2.14747 7.98833L1.12158 11.1967H3.85149L5.68302 11.22L4.29778 8.49583L5.22514 7.08417Z" fill="#F5841F" stroke="#F5841F" stroke-width="0.0583333" stroke-linecap="round" stroke-linejoin="round"/>
<path d="M9.39812 8.64749L9.59518 5.22916L10.4878 2.79666H6.51172L7.4043 5.22916L7.60136 8.64749L7.67671 9.72083L7.68251 12.375H9.31697L9.32277 9.72083L9.39812 8.64749Z" fill="#F5841F" stroke="#F5841F" stroke-width="0.0583333" stroke-linecap="round" stroke-linejoin="round"/>
</svg>
