<svg width="20" height="20" viewBox="0 0 20 20" fill="none" xmlns="http://www.w3.org/2000/svg">
<g opacity="0.5">
<path fill-rule="evenodd" clip-rule="evenodd" d="M10.188 10.7911C10.0884 10.905 9.91112 10.905 9.8115 10.7911L5.11206 5.41453C4.97075 5.25285 5.08556 5 5.30029 5H6.51095C6.58324 5 6.65199 5.03129 6.69947 5.0858L9.99974 8.875L13.3 5.0858C13.3475 5.03129 13.4162 5 13.4885 5H14.6992C14.9139 5 15.0287 5.25285 14.8874 5.41453L10.188 10.7911Z" fill="white"/>
<path fill-rule="evenodd" clip-rule="evenodd" d="M9.76125 9.08541C9.86086 8.97144 10.0381 8.97144 10.1377 9.08541L14.8372 14.4619C14.9785 14.6236 14.8637 14.8765 14.6489 14.8765L13.4383 14.8765C13.366 14.8765 13.2972 14.8452 13.2497 14.7907L9.94948 11.0015L6.64922 14.7907C6.60174 14.8452 6.53299 14.8765 6.4607 14.8765L5.25004 14.8765C5.03531 14.8765 4.92049 14.6236 5.06181 14.4619L9.76125 9.08541Z" fill="white"/>
</g>
</svg>
