<svg width="20" height="20" viewBox="0 0 20 20" fill="none" xmlns="http://www.w3.org/2000/svg">
<g clip-path="url(#clip0_1_3173)">
<path d="M13.152 14.5022C12.1911 15.1849 11.0663 15.5272 9.91605 15.5115C9.76403 15.5099 9.61285 15.5018 9.46341 15.4886C9.40258 15.4828 9.34182 15.4726 9.2801 15.465C9.16274 15.449 9.04538 15.433 8.93137 15.4105C8.86043 15.3969 8.79114 15.3788 8.72193 15.3624C8.60961 15.3357 8.49817 15.3086 8.38833 15.2756C8.336 15.2592 8.2845 15.2402 8.23213 15.2224C8.10632 15.1797 7.98047 15.1355 7.85804 15.0834C7.83018 15.072 7.80316 15.0589 7.7761 15.0462C7.63258 14.9824 7.49155 14.9157 7.35469 14.8403C7.34798 14.837 7.34289 14.8341 7.33612 14.8307C6.87333 14.5732 6.45026 14.2517 6.07871 13.8759C6.07282 13.8699 6.06687 13.8632 6.06098 13.8564C5.94528 13.7394 5.83553 13.6164 5.7308 13.4887C5.70885 13.4613 5.68773 13.4322 5.66578 13.4043C4.90993 12.4461 4.45394 11.2335 4.45394 9.9146H5.73584C5.76882 9.9146 5.80086 9.89688 5.81783 9.8656C5.83469 9.83467 5.8322 9.79794 5.81355 9.77047L3.65931 6.49547C3.64245 6.47008 3.61385 6.45315 3.58135 6.45315C3.54931 6.45315 3.52061 6.47008 3.50373 6.49547L1.34939 9.77001C1.33122 9.79789 1.32826 9.83425 1.34517 9.86557C1.36203 9.8968 1.39416 9.91457 1.4271 9.91457H2.70904C2.70904 11.4652 3.18612 12.9026 3.99622 14.0911C4.00637 14.1075 4.01308 14.1252 4.02409 14.1418C4.10851 14.2635 4.2014 14.3754 4.29178 14.4905C4.32471 14.534 4.3568 14.5786 4.39142 14.6215C4.524 14.7846 4.66503 14.9376 4.80945 15.0876C4.82377 15.1024 4.83646 15.1172 4.84995 15.1303C5.33642 15.6239 5.88618 16.0398 6.4849 16.3719C6.50012 16.3818 6.51529 16.391 6.53216 16.3999C6.70445 16.4938 6.88179 16.5787 7.06167 16.6589C7.10639 16.6784 7.14947 16.6999 7.19504 16.7193C7.34876 16.7836 7.50665 16.8403 7.66544 16.8943C7.74057 16.9202 7.81493 16.9464 7.89094 16.97C8.03024 17.0119 8.17217 17.0464 8.31481 17.0812C8.41027 17.1037 8.50404 17.1277 8.60114 17.1463C8.64074 17.1547 8.67876 17.167 8.71845 17.1733C8.85359 17.1975 8.98871 17.211 9.12383 17.2278C9.17278 17.2333 9.22093 17.2417 9.26904 17.2473C9.51229 17.2713 9.75378 17.2875 9.99529 17.2875C11.4741 17.2875 12.9164 16.8292 14.1536 15.9506C14.548 15.6699 14.6442 15.1194 14.368 14.7191C14.0912 14.3184 13.5464 14.2216 13.152 14.5022ZM17.2546 9.9146C17.2538 8.36857 16.78 6.93417 15.9735 5.74822C15.9616 5.72791 15.9533 5.70723 15.9406 5.68864C15.84 5.54366 15.731 5.40841 15.6222 5.27274C15.6095 5.25624 15.5977 5.23894 15.5843 5.22289C14.8461 4.31551 13.9197 3.61436 12.8692 3.15618C12.8404 3.14348 12.8117 3.12915 12.7829 3.11645C12.6149 3.04676 12.4436 2.98506 12.2713 2.92627C12.2088 2.90557 12.1471 2.88274 12.0838 2.86373C11.9335 2.81765 11.7807 2.78008 11.6269 2.74414C11.5417 2.72425 11.4571 2.7023 11.3712 2.68537C11.3279 2.67691 11.2884 2.66426 11.2461 2.65668C11.1313 2.63633 11.0155 2.62743 10.9007 2.61267C10.8212 2.60256 10.7427 2.58987 10.6624 2.5814C10.4691 2.56326 10.2774 2.55564 10.0857 2.55225C10.0511 2.55225 10.0164 2.54675 9.98183 2.54675C9.97595 2.54675 9.97 2.54845 9.96332 2.54887C8.48716 2.55014 7.04731 3.00192 5.81179 3.87934C5.41659 4.15909 5.32033 4.71063 5.59652 5.11087C5.87262 5.51111 6.41815 5.60835 6.81256 5.3277C7.76682 4.6502 8.88067 4.30742 10.0224 4.31763C10.1871 4.31885 10.3484 4.32691 10.508 4.34209C10.5579 4.34798 10.606 4.35521 10.6549 4.36156C10.7867 4.37764 10.9168 4.39663 11.0451 4.42241C11.1017 4.43336 11.1582 4.44822 11.2131 4.46087C11.339 4.48956 11.4649 4.52045 11.5882 4.55806C11.6269 4.57071 11.665 4.58467 11.7037 4.59776C11.8448 4.64431 11.9825 4.69453 12.1184 4.75162C12.1321 4.75751 12.1464 4.76469 12.1598 4.77019C12.973 5.12482 13.6867 5.67083 14.2433 6.35338C14.2465 6.35767 14.2499 6.36312 14.2532 6.36692C15.037 7.33349 15.509 8.56926 15.509 9.91449H14.227C14.1942 9.91449 14.162 9.93222 14.1452 9.96349C14.1283 9.99472 14.1307 10.0311 14.1495 10.059L16.3044 13.3337C16.3206 13.359 16.3494 13.3754 16.3822 13.3754C16.4142 13.3754 16.443 13.359 16.4599 13.3337L18.6134 10.059C18.6319 10.0311 18.6344 9.99472 18.6176 9.96349C18.6006 9.93222 18.5686 9.91449 18.5356 9.91449H17.2546V9.9146H17.2546Z" fill="white"/>
</g>
<defs>
<clipPath id="clip0_1_3173">
<rect width="17.3333" height="17.3333" fill="white" transform="translate(1.3335 1.33337)"/>
</clipPath>
</defs>
</svg>
