<svg width="10" height="10" viewBox="0 0 10 10" fill="none" xmlns="http://www.w3.org/2000/svg">
<path opacity="0.2" fill-rule="evenodd" clip-rule="evenodd" d="M7.67364 4.33682C7.67364 6.17969 6.17969 7.67364 4.33682 7.67364C2.49394 7.67364 1 6.17969 1 4.33682C1 2.49394 2.49394 1 4.33682 1C6.17969 1 7.67364 2.49394 7.67364 4.33682ZM7.02953 7.73664C6.28983 8.32328 5.35424 8.67364 4.33682 8.67364C1.94166 8.67364 0 6.73198 0 4.33682C0 1.94166 1.94166 0 4.33682 0C6.73198 0 8.67364 1.94166 8.67364 4.33682C8.67364 5.35424 8.32328 6.28983 7.73664 7.02953L9.40117 8.69407C9.59643 8.88933 9.59643 9.20591 9.40117 9.40117C9.20591 9.59643 8.88933 9.59643 8.69407 9.40117L7.02953 7.73664Z" fill="white"/>
</svg>
