<svg width="16" height="16" viewBox="0 0 16 16" fill="none" xmlns="http://www.w3.org/2000/svg">
<path fill-rule="evenodd" clip-rule="evenodd" d="M9.95781 11.4079C9.61944 12.7131 6.18742 12.8097 6.42911 11.0696C6.57412 9.90944 6.81582 8.79766 7.00917 7.63754C7.10585 6.91246 6.62246 7.15415 6.23576 7.00914C5.94572 6.86412 5.94572 6.52575 6.28409 6.47742C6.71914 6.38074 8.21763 6.42908 8.74935 6.42908C9.03938 6.42908 9.1844 6.57409 9.1844 6.81578C9.23273 7.05748 9.1844 7.29917 9.13606 7.49252C8.9427 8.6043 8.65267 9.76442 8.556 10.8279C8.50766 11.0696 8.556 11.5046 8.89437 11.5046C9.23273 11.4563 9.37775 11.3113 9.66778 11.2146C9.86113 11.1179 9.95781 11.2629 9.95781 11.4079Z" fill="#3F7FFF"/>
<path fill-rule="evenodd" clip-rule="evenodd" d="M8.26583 3.57715C8.94257 3.57715 9.42595 4.10887 9.42595 4.73727C9.42595 5.41401 8.89423 5.94573 8.26583 5.89739C7.63743 5.89739 7.10571 5.36567 7.10571 4.73727C7.10571 4.10887 7.63743 3.57715 8.26583 3.57715Z" fill="#3F7FFF"/>
<path d="M7.97583 0C12.423 0 16 3.57704 16 7.97583C16 12.423 12.423 16 7.97583 16C3.57704 16 0 12.423 0 7.97583C0 3.57704 3.57704 0 7.97583 0ZM7.97583 1.20846C4.25378 1.20846 1.20846 4.25378 1.20846 7.97583C1.20846 11.7462 4.25378 14.7432 7.97583 14.7432C11.7462 14.7432 14.7432 11.7462 14.7432 7.97583C14.7432 4.25378 11.7462 1.20846 7.97583 1.20846Z" fill="#3F7FFF"/>
</svg>
