<svg width="32" height="32" viewBox="0 0 32 32" fill="none" xmlns="http://www.w3.org/2000/svg">
<circle cx="16" cy="16" r="16" fill="white" fill-opacity="0.06"/>
<path d="M23.3713 13.3807C23.3713 17.3837 20.0694 22 14.0319 22C12.178 22 10.4525 21.4987 9 20.6387C9.25702 20.6666 9.51814 20.6813 9.78285 20.6813C11.3209 20.6813 12.7361 20.197 13.8599 19.3843C12.4232 19.3602 11.2113 18.4842 10.7935 17.2807C10.9942 17.3161 11.1996 17.335 11.411 17.335C11.7105 17.335 12.0003 17.2977 12.2758 17.2287C10.7741 16.9504 9.64256 15.7262 9.64256 14.2581C9.64256 14.2454 9.64256 14.2326 9.64307 14.2199C10.0854 14.4467 10.5918 14.5832 11.1299 14.5988C10.2493 14.0554 9.6697 13.1284 9.6697 12.0771C9.6697 11.5219 9.83149 11.0017 10.1141 10.5542C11.7331 12.3871 14.1517 13.5929 16.8802 13.7195C16.8244 13.4979 16.7952 13.2664 16.7952 13.0292C16.7952 11.3561 18.2652 10 20.0776 10C21.0218 10 21.8748 10.3681 22.4738 10.9568C23.2213 10.8212 23.9238 10.5689 24.5581 10.2216C24.3129 10.9289 23.7927 11.5229 23.1148 11.8975C23.7789 11.8243 24.4117 11.6613 25 11.4208C24.5602 12.0284 24.0036 12.5619 23.3621 12.989C23.3677 13.119 23.3713 13.2498 23.3713 13.3807Z" fill="white"/>
</svg>
