<svg width="32" height="28" viewBox="0 0 32 28" fill="none" xmlns="http://www.w3.org/2000/svg">
<path d="M18.1431 28H13.2116L10.7568 23.7239H15.6823L18.1431 28Z" fill="#2BFCFC"/>
<path d="M18.1433 18.634L17.2275 20.2372L15.6765 22.9745H10.749L11.6688 21.3593H14.6125C14.6218 21.3602 14.6312 21.3602 14.6405 21.3593H14.6986C14.7187 21.3497 14.7381 21.3391 14.7568 21.3272H14.7688L14.8189 21.2852L14.8409 21.259L14.8549 21.2432L14.877 21.209L14.889 21.187L16.3238 18.7022L16.3058 18.6701L18.1433 18.634Z" fill="#2BFCFC"/>
<path d="M21.2651 23.329L18.7903 27.6212L16.3296 23.3469L18.7903 19.0046L21.2651 23.329Z" fill="#2BFCFC"/>
<path d="M20.6357 4.75917L21.5134 6.29815H19.8743L18.8223 4.46459L21.1787 0.366699L22.0044 1.78143L20.5637 4.30428C20.5551 4.31836 20.5476 4.33311 20.5417 4.34838C20.5417 4.34838 20.5417 4.36641 20.5316 4.37443V4.45858C20.534 4.51925 20.5512 4.57842 20.5816 4.63091L20.6357 4.75917Z" fill="#2BFCFC"/>
<path d="M31.8171 4.6028L29.5809 8.73076L29.5749 8.71874L27.1182 4.48456L29.3824 0.388672L31.8151 4.6028H31.8171Z" fill="#2BFCFC"/>
<path d="M28.7393 0.00390625L26.4769 4.09379L26.4629 4.11784H21.5215L22.7117 2.05987L22.87 1.78534L23.886 0.0339643L28.7393 0.00390625Z" fill="#2BFCFC"/>
<path d="M28.9537 9.13568H27.2284V9.10962L25.7134 6.47654L25.6893 6.44248C25.677 6.42635 25.6628 6.41158 25.6473 6.3984L25.6372 6.38838L25.5893 6.35431L25.5351 6.32826C25.5165 6.32015 25.4969 6.31411 25.4769 6.31022C25.4508 6.30395 25.4239 6.30059 25.3968 6.3002H22.3629L21.5435 4.87145H21.5634L23.3668 4.86143H24.2186L26.4748 4.84741L26.489 4.87145L28.9396 9.11563L28.9537 9.13568Z" fill="#2BFCFC"/>
<path d="M22.3613 20.5998H20.5577L19.1149 18.0809L19.103 18.0589L19.0888 18.0388L19.0729 18.0208L19.0548 18.0027L19.0367 17.9867L19.0207 17.9526L18.9807 17.9246L18.9566 17.9146H18.8906C18.8805 17.9127 18.8704 17.9127 18.8605 17.9146H16.7744L17.6762 16.3516H19.8805L22.3613 20.5998Z" fill="#2BFCFC"/>
<path d="M27.8878 11.8087L23.0143 20.229L20.5415 15.9447L24.1606 9.57844V9.57642L24.1765 9.54837L25.3889 7.41626L26.3508 9.11554L26.3608 9.13158L26.5992 9.54837L26.6093 9.5644L26.7795 9.86297L26.7876 9.87901L26.7956 9.89303L27.8878 11.8087Z" fill="#2BFCFC"/>
<path d="M19.8381 15.5721L17.6919 15.564L16.3213 13.1794L18.4434 9.56247L18.4514 9.54843L18.6978 9.12763L19.6778 7.46042L19.848 7.16584L19.9143 7.05363H20.305L21.9462 7.0476L22.2768 7.04561H22.6495L23.0363 7.04361L24.6894 7.0376L19.8381 15.5721Z" fill="#2BFCFC"/>
<path d="M17.0366 15.9248L16.8142 16.3095L15.9104 17.8766L15.8944 17.9066L15.4796 18.624L15.4616 18.6561L14.5558 20.225L14.3634 19.8864L9.72852 11.7708L10.8186 9.8631L13.5439 9.86108L13.5479 9.86709L15.4535 13.1775L15.4796 13.2216L15.8844 13.9229L15.9084 13.967L16.8262 15.5621L17.0366 15.9248Z" fill="#2BFCFC"/>
<path d="M10.1555 9.51247L10.1375 9.54252L9.07742 11.3961L4.1499 11.3701L5.00956 9.8892H8.14561C8.16023 9.89127 8.17507 9.89127 8.1897 9.8892H8.24981L8.28587 9.87516L8.32595 9.85112L8.36403 9.82306L8.38206 9.80503C8.40609 9.78104 8.42696 9.75411 8.44419 9.72488L9.32389 8.1358L9.33591 8.11377L10.1555 9.51247Z" fill="#2BFCFC"/>
<path d="M13.9108 20.6078L12.0953 20.6177L11.2296 20.6237L9.02736 20.6358L4.14795 12.1213L9.07746 12.1454L12.5722 18.2652L12.7105 18.5057L13.003 19.0206L13.9108 20.6078Z" fill="#2BFCFC"/>
<path d="M7.46233 9.13967L2.45067 9.14169L0.00195312 4.86743H4.92945L7.46233 9.13967Z" fill="#2BFCFC"/>
<path d="M19.2471 6.71085L17.8303 9.12351L13.9808 9.1195H10.7907V9.11549H10.7566L10.7466 9.09947L9.75269 7.36011L9.61241 7.11563L9.31384 6.59663L8.31592 4.85327H18.1789L18.191 4.87332L19.2471 6.71085Z" fill="#2BFCFC"/>
<path d="M20.5278 0L18.1713 4.10592L18.1593 4.12595L11.1197 4.10993H10.24L8.63091 4.10792H8.32031L9.26414 2.52889L9.69898 1.80749L10.7771 0.014027L20.5278 0Z" fill="#2BFCFC"/>
<path d="M8.89741 7.33218L8.88738 7.34822L8.10588 8.75092L7.12999 7.09973L5.58301 4.48669L7.93555 0.364746L8.82326 1.80352L7.34843 4.26827C7.31477 4.32465 7.29678 4.38899 7.29631 4.45464C7.29605 4.5205 7.31261 4.58533 7.34441 4.64299L7.35843 4.66503L8.3263 6.34027L8.75914 7.0877L8.89741 7.33218Z" fill="#2BFCFC"/>
<path d="M7.27804 0.0141602L4.93552 4.11808H0L2.34451 0.0141602H7.27804Z" fill="#2BFCFC"/>
</svg>
