<svg width="18" height="18" viewBox="0 0 18 18" fill="none" xmlns="http://www.w3.org/2000/svg">
<rect opacity="0.3" width="18" height="18" rx="2" fill="#8FA7A7"/>
<path opacity="0.8" d="M2.83754 12.88C4.17672 13.0076 5.38672 12.6774 6.49505 11.8616C6.33658 11.8366 6.20723 11.8238 6.08148 11.7953C5.19168 11.5933 4.57264 11.067 4.21935 10.2276C4.15973 10.086 4.17639 10.0752 4.33198 10.0879C4.62623 10.112 4.92064 10.1185 5.24951 10.0361C4.95974 9.94839 4.7105 9.85694 4.48504 9.71194C3.76206 9.24687 3.36712 8.58268 3.2805 7.73092C3.27827 7.70901 3.2787 7.68685 3.27847 7.66484C3.27685 7.50735 3.28655 7.50166 3.43155 7.5714C3.72056 7.71042 4.0238 7.79411 4.38426 7.80986C4.23774 7.70203 4.12524 7.60321 4.01949 7.4968C3.26037 6.73283 3.07776 5.49711 3.5823 4.54585C3.63193 4.45227 3.66094 4.4394 3.73523 4.5278C4.35236 5.26239 5.08734 5.85378 5.94004 6.29218C6.77576 6.7219 7.66219 6.98735 8.60258 7.0588C8.84362 7.07708 8.83976 7.0755 8.81296 6.82481C8.64493 5.25487 9.81422 4.09572 11.0934 3.98388C11.8636 3.91654 12.5261 4.1531 13.0929 4.66864C13.1704 4.73908 13.2395 4.7605 13.3414 4.73793C13.8057 4.63506 14.2412 4.4595 14.6593 4.23638C14.6966 4.21643 14.7287 4.18001 14.7999 4.19262C14.6174 4.75783 14.2674 5.18627 13.7935 5.52975C14.2525 5.48424 14.6866 5.34876 15.1131 5.17394C15.1262 5.24026 15.0878 5.27034 15.0637 5.30391C14.7662 5.71832 14.4164 6.08344 14.0116 6.39348C13.9216 6.46244 13.8855 6.53405 13.8879 6.64788C13.9209 8.24765 13.4623 9.70361 12.5545 11.0111C11.416 12.6509 9.8517 13.633 7.87502 13.9425C6.26489 14.1945 4.73388 13.9498 3.28974 13.1878C3.13212 13.1047 2.98007 13.0109 2.82544 12.9221C2.82948 12.908 2.83352 12.894 2.83754 12.88Z" fill="#8FA7A7"/>
</svg>
