<svg width="88" height="24" viewBox="0 0 88 24" fill="none" xmlns="http://www.w3.org/2000/svg">
<g opacity="0.6" clip-path="url(#clip0_42_193)">
<path d="M15.5513 24.0002H11.3243L9.22021 20.335H13.4421L15.5513 24.0002Z" fill="#8FA7A7"/>
<path d="M15.5513 15.9717L14.7664 17.3458L13.437 19.6921H9.21338L10.0018 18.3076H12.5249C12.5329 18.3084 12.541 18.3084 12.549 18.3076H12.5988C12.6159 18.2994 12.6326 18.2903 12.6486 18.2801H12.6589L12.7018 18.2441L12.7207 18.2217L12.7327 18.2081L12.7516 18.1788L12.7619 18.1599L13.9918 16.0301L13.9763 16.0026L15.5513 15.9717Z" fill="#8FA7A7"/>
<path d="M18.227 19.9966L16.1057 23.6756L13.9966 20.012L16.1057 16.29L18.227 19.9966Z" fill="#8FA7A7"/>
<path d="M17.6877 4.07943L18.44 5.39855H17.0351L16.1333 3.82693L18.1531 0.314453L18.8608 1.52708L17.6259 3.68953C17.6186 3.70159 17.6122 3.71423 17.6071 3.72732C17.6071 3.72732 17.6071 3.74277 17.5984 3.74965V3.82178C17.6005 3.87378 17.6152 3.9245 17.6413 3.96949L17.6877 4.07943Z" fill="#8FA7A7"/>
<path d="M27.2718 3.94511L25.355 7.48337L25.3499 7.47306L23.2441 3.84377L25.1849 0.333008L27.2701 3.94511H27.2718Z" fill="#8FA7A7"/>
<path d="M24.6335 0.00390625L22.6943 3.50953L22.6823 3.53013H18.4468L19.4669 1.76616L19.6026 1.53085L20.4735 0.0296703L24.6335 0.00390625Z" fill="#8FA7A7"/>
<path d="M24.8175 7.83093H23.3386V7.8086L22.0401 5.55167L22.0194 5.52247C22.0089 5.50865 21.9967 5.49599 21.9834 5.4847L21.9748 5.4761L21.9337 5.4469L21.8873 5.42457C21.8713 5.41762 21.8545 5.41244 21.8373 5.40911C21.8149 5.40374 21.7919 5.40086 21.7687 5.40052H19.1682L18.4658 4.17588H18.4829L20.0287 4.16729H20.7588L22.6927 4.15527L22.7049 4.17588L24.8053 7.81375L24.8175 7.83093Z" fill="#8FA7A7"/>
<path d="M19.1666 17.657H17.6207L16.3841 15.4979L16.3738 15.479L16.3617 15.4618L16.3481 15.4464L16.3326 15.4309L16.317 15.4172L16.3033 15.388L16.269 15.3639L16.2484 15.3554H16.1918C16.1831 15.3537 16.1745 15.3537 16.166 15.3554H14.3779L15.1509 14.0156H17.0402L19.1666 17.657Z" fill="#8FA7A7"/>
<path d="M23.9037 10.1214L19.7265 17.3388L17.6069 13.6665L20.709 8.20974V8.20801L20.7226 8.18397L21.7618 6.35645L22.5863 7.81297L22.5949 7.82672L22.7993 8.18397L22.8079 8.19771L22.9538 8.45363L22.9607 8.46737L22.9676 8.47939L23.9037 10.1214Z" fill="#8FA7A7"/>
<path d="M17.0042 13.3475L15.1646 13.3406L13.9897 11.2967L15.8087 8.1964L15.8156 8.18437L16.0268 7.82368L16.8668 6.39464L17.0127 6.14215L17.0695 6.04597H17.4044L18.8111 6.0408L19.0944 6.03909H19.414L19.7455 6.03738L21.1624 6.03223L17.0042 13.3475Z" fill="#8FA7A7"/>
<path d="M14.6029 13.6496L14.4123 13.9794L13.6377 15.3225L13.6239 15.3483L13.2684 15.9632L13.2529 15.9907L12.4765 17.3355L12.3117 17.0453L8.33887 10.089L9.27324 8.45388L11.6092 8.45215L11.6126 8.4573L13.246 11.2948L13.2684 11.3326L13.6153 11.9337L13.6359 11.9715L14.4226 13.3387L14.6029 13.6496Z" fill="#8FA7A7"/>
<path d="M8.70477 8.15396L8.68932 8.17972L7.78071 9.76851L3.55713 9.74618L4.29398 8.47688H6.98202C6.99455 8.47865 7.00727 8.47865 7.01982 8.47688H7.07134L7.10225 8.46484L7.1366 8.44424L7.16924 8.42019L7.1847 8.40473C7.20529 8.38417 7.22318 8.36108 7.23794 8.33603L7.99198 6.97396L8.00228 6.95508L8.70477 8.15396Z" fill="#8FA7A7"/>
<path d="M11.9233 17.6637L10.3672 17.6722L9.62517 17.6773L7.73753 17.6877L3.55518 10.3896L7.78047 10.4103L10.776 15.6558L10.8945 15.8619L11.1453 16.3033L11.9233 17.6637Z" fill="#8FA7A7"/>
<path d="M6.39608 7.8338L2.10036 7.83552L0.00146484 4.17188H4.22504L6.39608 7.8338Z" fill="#8FA7A7"/>
<path d="M16.4975 5.75236L15.2831 7.82036L11.9836 7.81692H9.24916V7.81348H9.21996L9.21137 7.79975L8.35945 6.30888L8.23921 6.09932L7.98329 5.65446L7.12793 4.16016H15.5819L15.5922 4.17734L16.4975 5.75236Z" fill="#8FA7A7"/>
<path d="M17.5949 0L15.5751 3.51936L15.5648 3.53653L9.53084 3.5228H8.7768L7.39757 3.52107H7.13135L7.94034 2.16762L8.31306 1.54927L9.23712 0.0120232L17.5949 0Z" fill="#8FA7A7"/>
<path d="M7.62607 6.28459L7.61748 6.29833L6.94762 7.50065L6.11114 6.08534L4.78516 3.8456L6.80162 0.3125L7.56252 1.54573L6.29837 3.65838C6.26953 3.7067 6.2541 3.76185 6.2537 3.81812C6.25348 3.87457 6.26767 3.93014 6.29493 3.97956L6.30695 3.99846L7.13655 5.43438L7.50756 6.07504L7.62607 6.28459Z" fill="#8FA7A7"/>
<path d="M6.23832 0.0117188L4.23045 3.52936H0L2.00958 0.0117188H6.23832Z" fill="#8FA7A7"/>
<path d="M33.7209 13.7989V10.2007H44.0186V8.40039H34.4836H33.0463L32.0039 10.2265V10.8004V15.5992H44.0186V13.7989H33.7209Z" fill="#8FA7A7"/>
<path d="M56.6596 8.40137V13.7998H48.1449V8.40137H46.4429V13.7667L47.4853 15.5793L57.6665 15.6001H58.363V8.40137H56.6596Z" fill="#8FA7A7"/>
<path d="M72.7936 10.9353L72.8048 10.2117L71.7623 8.40039H60.8979V15.5992L71.7623 15.5844L72.8059 13.7731V12.8999L72.7936 10.9353ZM71.1184 13.8001H62.6013V12.8999H71.1184V13.8001ZM71.1184 11.1021H62.6013V10.2032H71.1184V11.1021Z" fill="#8FA7A7"/>
<path d="M76.9179 13.7998V12.8997H87.1899V11.1006H76.9179V10.2004H87.1899V8.40137H76.2483L75.2046 10.2274V15.6001H87.1899V13.7998H76.9179Z" fill="#8FA7A7"/>
</g>
<defs>
<clipPath id="clip0_42_193">
<rect width="88" height="24" fill="white"/>
</clipPath>
</defs>
</svg>
