<svg width="171" height="171" viewBox="0 0 171 171" fill="none" xmlns="http://www.w3.org/2000/svg">
<path d="M79.809 7.19297C82.7144 3.52076 88.2856 3.52076 91.191 7.19297C93.6058 10.2451 97.9983 10.8488 101.147 8.5614C104.935 5.80924 110.3 7.31231 112.107 11.6322C113.609 15.2227 117.676 16.9891 121.325 15.636C125.715 14.008 130.475 16.9027 131.05 21.5499C131.527 25.4124 134.966 28.2105 138.845 27.8921C143.512 27.509 147.315 31.5806 146.614 36.2104C146.032 40.0585 148.589 43.6809 152.409 44.4207C157.007 45.311 159.57 50.2575 157.646 54.5266C156.047 58.0748 157.532 62.2527 161.011 63.996C165.198 66.0935 166.331 71.5481 163.327 75.1399C160.83 78.1252 161.133 82.5487 164.013 85.1662C167.478 88.3154 167.098 93.8735 163.236 96.5216C160.026 98.7224 159.124 103.064 161.191 106.361C163.679 110.328 161.813 115.578 157.38 117.086C153.695 118.339 151.655 122.276 152.756 126.009C154.081 130.5 150.868 135.052 146.193 135.307C142.307 135.52 139.28 138.761 139.333 142.652C139.397 147.334 135.075 150.85 130.504 149.835C126.705 148.992 122.916 151.295 121.917 155.057C120.716 159.583 115.606 161.802 111.478 159.591C108.047 157.754 103.777 158.95 101.801 162.303C99.4225 166.336 93.9032 167.095 90.5249 163.853C87.7169 161.158 83.2831 161.158 80.4751 163.853C77.0968 167.095 71.5775 166.336 69.1992 162.303C67.2225 158.95 62.9531 157.754 59.5222 159.591C55.3943 161.802 50.2844 159.583 49.0826 155.057C48.0837 151.295 44.2953 148.992 40.4959 149.835C35.9247 150.85 31.6031 147.334 31.6668 142.652C31.7198 138.761 28.6934 135.52 24.8074 135.307C20.1318 135.052 16.919 130.5 18.2436 126.009C19.3446 122.276 17.3047 118.339 13.6201 117.086C9.187 115.578 7.32133 110.328 9.80855 106.361C11.8758 103.064 10.9737 98.7224 7.76388 96.5216C3.90197 93.8735 3.52178 88.3154 6.98715 85.1662C9.86738 82.5487 10.17 78.1252 7.67297 75.1399C4.66869 71.5481 5.80217 66.0935 9.98869 63.996C13.4683 62.2527 14.9531 58.0748 13.3541 54.5266C11.4303 50.2575 13.9934 45.311 18.5906 44.4207C22.4115 43.6809 24.9684 40.0585 24.386 36.2104C23.6853 31.5806 27.4879 27.509 32.1548 27.8921C36.0336 28.2105 39.473 25.4124 39.9505 21.5499C40.5249 16.9027 45.285 14.008 49.6754 15.636C53.3245 16.9891 57.3913 15.2227 58.8931 11.6322C60.7 7.31231 66.0645 5.80924 69.8529 8.5614C73.0017 10.8488 77.3942 10.2451 79.809 7.19297Z" fill="url(#paint0_linear_26_315)"/>
<circle opacity="0.7" cx="85.5" cy="85.5" r="72.25" stroke="black" stroke-width="0.5"/>
<circle opacity="0.3" cx="85.5" cy="85.5" r="70.25" stroke="black" stroke-width="0.5"/>
<defs>
<linearGradient id="paint0_linear_26_315" x1="44.4265" y1="-29.0089" x2="210.9" y2="-2.31637" gradientUnits="userSpaceOnUse">
<stop stop-color="#0CFFFF"/>
<stop offset="1" stop-color="#FFF869"/>
</linearGradient>
</defs>
</svg>
