<svg width="100" height="100" viewBox="0 0 100 100" fill="none" xmlns="http://www.w3.org/2000/svg">
<path d="M78.5289 41.9092H72.2346V27.2635C72.2346 14.9978 62.2712 5.02344 50.0124 5.02344C37.7534 5.02344 27.7786 14.9978 27.7786 27.2635V41.9092H21.4897C18.4576 41.9092 16 44.368 16 47.4021V87.5011C16 90.5406 18.4576 92.9996 21.4897 92.9996H78.5343C81.5672 92.9996 84.019 90.5406 84.019 87.5011V47.4021C84.0186 44.3676 81.562 41.9092 78.5289 41.9092ZM53.0953 68.4965V77.2526C53.0953 77.6438 52.7717 77.9734 52.3747 77.9734H47.6555C47.2535 77.9734 46.9297 77.6436 46.9297 77.2526V68.4965C44.7125 67.362 43.1766 65.0877 43.1766 62.4221C43.1766 58.6504 46.2372 55.5828 50.007 55.5828C53.7825 55.5828 56.8432 58.6504 56.8432 62.4221C56.8486 65.0879 55.3125 67.362 53.0953 68.4965ZM63.7065 41.9092H36.3176V27.6262C36.3176 20.0712 42.4667 13.919 50.0176 13.919C57.5684 13.919 63.7063 20.0712 63.7063 27.6262L63.7065 41.9092Z" fill="url(#paint0_linear_52_380)"/>
<path d="M78.5289 41.9092H72.2346V27.2635C72.2346 14.9978 62.2712 5.02344 50.0124 5.02344C37.7534 5.02344 27.7786 14.9978 27.7786 27.2635V41.9092H21.4897C18.4576 41.9092 16 44.368 16 47.4021V87.5011C16 90.5406 18.4576 92.9996 21.4897 92.9996H78.5343C81.5672 92.9996 84.019 90.5406 84.019 87.5011V47.4021C84.0186 44.3676 81.562 41.9092 78.5289 41.9092ZM53.0953 68.4965V77.2526C53.0953 77.6438 52.7717 77.9734 52.3747 77.9734H47.6555C47.2535 77.9734 46.9297 77.6436 46.9297 77.2526V68.4965C44.7125 67.362 43.1766 65.0877 43.1766 62.4221C43.1766 58.6504 46.2372 55.5828 50.007 55.5828C53.7825 55.5828 56.8432 58.6504 56.8432 62.4221C56.8486 65.0879 55.3125 67.362 53.0953 68.4965ZM63.7065 41.9092H36.3176V27.6262C36.3176 20.0712 42.4667 13.919 50.0176 13.919C57.5684 13.919 63.7063 20.0712 63.7063 27.6262L63.7065 41.9092Z" fill="#2BFCFC"/>
<defs>
<linearGradient id="paint0_linear_52_380" x1="30.7681" y1="-2.47453" x2="65.4416" y2="4.1733" gradientUnits="userSpaceOnUse">
<stop stop-color="#0CFFFF"/>
<stop offset="1" stop-color="#FFF625"/>
</linearGradient>
</defs>
</svg>
